<?xml version="1.0" encoding="UTF-8" standalone="no"?>
<svg
   xmlns:dc="http://purl.org/dc/elements/1.1/"
   xmlns:cc="http://creativecommons.org/ns#"
   xmlns:rdf="http://www.w3.org/1999/02/22-rdf-syntax-ns#"
   xmlns:svg="http://www.w3.org/2000/svg"
   xmlns="http://www.w3.org/2000/svg"
   xmlns:sodipodi="http://sodipodi.sourceforge.net/DTD/sodipodi-0.dtd"
   xmlns:inkscape="http://www.inkscape.org/namespaces/inkscape"
   viewBox="0 0 300 300"
   height="300"
   width="300"
   xml:space="preserve"
   id="svg2"
   version="1.1"
   sodipodi:docname="Joining In Award - 1 Year.svg"
   inkscape:version="0.92.3 (2405546, 2018-03-11)"><sodipodi:namedview
   pagecolor="#ffffff"
   bordercolor="#666666"
   borderopacity="1"
   objecttolerance="10"
   gridtolerance="10"
   guidetolerance="10"
   inkscape:pageopacity="0"
   inkscape:pageshadow="2"
   inkscape:window-width="1280"
   inkscape:window-height="1001"
   id="namedview19"
   showgrid="false"
   inkscape:zoom="1.7556166"
   inkscape:cx="150.5738"
   inkscape:cy="109.40092"
   inkscape:window-x="-8"
   inkscape:window-y="-8"
   inkscape:window-maximized="1"
   inkscape:current-layer="svg2" /><metadata
   id="metadata8"><rdf:RDF><cc:Work
       rdf:about=""><dc:format>image/svg+xml</dc:format><dc:type
         rdf:resource="http://purl.org/dc/dcmitype/StillImage" /><dc:title></dc:title></cc:Work></rdf:RDF></metadata><defs
   id="defs6" /><rect
   style="opacity:1;fill:#f2731d;fill-opacity:1;fill-rule:evenodd;stroke:none;stroke-width:71.99927521;stroke-miterlimit:4;stroke-dasharray:none;stroke-opacity:1"
   id="rect850"
   width="300"
   height="300"
   x="0"
   y="-8.2328916e-006" /><rect
   style="opacity:1;fill:#000000;fill-opacity:1;fill-rule:evenodd;stroke:none;stroke-width:63.35936737;stroke-miterlimit:4;stroke-dasharray:none;stroke-opacity:1"
   id="rect850-3"
   width="264"
   height="264"
   x="18"
   y="17.999992" /><path
   style="fill:#ffffff;stroke-width:4.00423717"
   d="m 149.88967,30.340853 -1.76366,1.92189 a 51.254239,51.254239 0 0 1 -6.12892,5.28513 21.542797,21.542797 0 0 0 -9.08789,16.65822 35.197246,35.197246 0 0 0 4.00196,14.5371 47.490256,47.490256 0 0 1 4.32421,12.890641 h 0.4043 4.84571 a 48.571399,48.571399 0 0 0 -4.76953,-14.89455 30.992797,30.992797 0 0 1 -3.76173,-12.49218 16.737712,16.737712 0 0 1 7.16602,-12.814441 c 0.7608,-0.60063 3.00668,-2.28015 4.96876,-4.00197 2.00212,1.84197 4.20305,3.52146 5.0039,4.00197 a 16.69767,16.69767 0 0 1 7.125,12.814441 30.992797,30.992797 0 0 1 -3.76172,12.49218 48.571399,48.571399 0 0 0 -4.76367,14.89455 h 4.88086 a 44.887501,44.887501 0 0 1 4.33008,-12.890641 35.797882,35.797882 0 0 0 4.00194,-14.5371 21.702966,21.702966 0 0 0 -9.12889,-16.65822 54.697883,54.697883 0 0 1 -6.12891,-5.28513 z m -33.27539,27.46875 a 14.295128,14.295128 0 0 0 -11.21484,5.40822 15.17606,15.17606 0 0 0 -3,12.732421 l 4.88085,-1.04298 a 10.370975,10.370975 0 0 1 2.08595,-8.648431 9.2898308,9.2898308 0 0 1 7.40624,-3.5625 13.33411,13.33411 0 0 1 10.5293,6.966781 30.35212,30.35212 0 0 1 4.44727,12.01173 h 4.88672 a 34.796824,34.796824 0 0 0 -5.32617,-14.695321 17.738772,17.738772 0 0 0 -14.69532,-9.16992 z m 66.75001,0 a 17.818857,17.818857 0 0 0 -14.77735,9.210931 34.676695,34.676695 0 0 0 -5.24414,14.65431 h 5.0039 a 29.751484,29.751484 0 0 1 4.44727,-12.01173 h -0.082 a 13.213983,13.213983 0 0 1 10.65235,-6.966781 9.3699156,9.3699156 0 0 1 7.44726,3.5625 10.370975,10.370975 0 0 1 2.03907,8.648431 l 4.72851,1.04298 a 14.895763,14.895763 0 0 0 -3.00588,-12.732421 14.295128,14.295128 0 0 0 -11.20898,-5.40822 z m -60.98438,28.072261 v 4.64064 h 55.41797 v -4.64064 z m 31.4707,8.929711 a 28.029662,28.029662 0 0 0 4.00195,10.406255 20.74195,20.74195 0 0 1 -8.0039,7.13085 20.58178,20.58178 0 0 1 -7.5293,-7.08984 26.98856,26.98856 0 0 0 4.00195,-10.412136 h -4.92187 a 22.543856,22.543856 0 0 1 -4.00782,8.812496 l -0.83788,1.16016 0.59766,1.28322 a 24.706144,24.706144 0 0 0 12.01757,11.209 l 0.96094,0.43943 0.99609,-0.43943 a 24.586017,24.586017 0 0 0 12.01758,-11.209 l 0.59765,-1.28322 -0.83788,-1.16016 -0.24024,-0.0411 a 23.144492,23.144492 0 0 1 -4.00782,-8.806615 z"
   id="path49"
   inkscape:connector-curvature="0" /><path
   style="fill:#ffffff;stroke-width:0.31667343"
   d="m 146.59911,268.16724 c -0.0807,-0.21781 -3.40955,-11.55966 -7.39733,-25.20433 -3.9878,-13.64465 -7.3809,-24.93885 -7.54026,-25.0982 -0.15936,-0.1593 -11.46825,-3.96675 -25.13091,-8.46094 -16.650116,-5.47686 -24.841196,-8.31254 -24.841196,-8.59982 0,-0.2355 9.681676,-7.03165 21.514826,-15.10198 11.83315,-8.07039 21.62804,-14.85173 21.76644,-15.06968 0.13843,-0.21781 0.25404,-7.66398 0.25701,-16.54666 0.007,-17.8812 0.31942,-36.57575 0.61328,-36.57575 0.24265,0 9.26051,6.9609 9.68293,7.47432 0.93814,1.14011 32.04098,24.82614 32.59824,24.82479 0.35885,-9.3e-4 2.57625,-0.64581 4.92755,-1.43317 16.25727,-5.44424 45.17505,-14.58587 45.42363,-14.35962 0.18276,0.16621 0.0777,0.73062 -0.27212,1.46169 -0.83545,1.74588 -17.28427,47.80822 -17.28427,48.40189 0,0.47133 24.32055,34.55871 28.7159,40.24785 1.10078,1.42479 2.00141,2.76444 2.00141,2.97699 0,0.2997 -1.75771,0.33627 -7.83766,0.1626 -11.85869,-0.33867 -35.43013,-1.11819 -40.63627,-1.34386 l -4.61469,-0.20009 -11.55464,15.7989 c -6.35503,8.68941 -12.15576,16.69389 -12.8905,17.78772 -2.46887,3.6756 -6.70804,9.25311 -7.03277,9.25311 -0.17697,0 -0.38785,-0.1782 -0.4686,-0.39585 z"
   id="path2339-4"
   inkscape:connector-curvature="0" /><path
   style="fill:#f2731d;stroke-width:0.31667343"
   d="m 135.7367,269.96685 c -0.0807,-0.2178 -3.40955,-11.55966 -7.39734,-25.20433 -3.98778,-13.64465 -7.38088,-24.93885 -7.54025,-25.0982 -0.15936,-0.1593 -11.46826,-3.96675 -25.130916,-8.46093 -16.650112,-5.47687 -24.841192,-8.31255 -24.841192,-8.59984 0,-0.23549 9.681675,-7.03163 21.514819,-15.10196 11.833149,-8.07039 21.628049,-14.85174 21.766459,-15.06969 0.13841,-0.2178 0.25404,-7.66399 0.25701,-16.54666 0.007,-17.88119 0.31941,-36.57575 0.61326,-36.57575 0.24265,0 9.26051,6.9609 9.68293,7.47432 0.93814,1.14011 32.04099,24.82613 32.59825,24.82478 0.35885,-9.2e-4 2.57625,-0.6458 4.92755,-1.43315 16.25727,-5.44425 45.17506,-14.58588 45.42363,-14.35963 0.18276,0.1662 0.0777,0.73062 -0.27213,1.4617 -0.83544,1.74587 -17.28426,47.80821 -17.28426,48.40188 0,0.47133 24.32056,34.55871 28.7159,40.24784 1.10078,1.4248 2.00141,2.76445 2.00141,2.977 0,0.2997 -1.75771,0.33627 -7.83767,0.1626 -11.85868,-0.33867 -35.43012,-1.11819 -40.63626,-1.34386 l -4.61469,-0.20009 -11.55464,15.7989 c -6.35504,8.68941 -12.15577,16.69389 -12.89051,17.78772 -2.46887,3.6756 -6.70804,9.25311 -7.03276,9.25311 -0.17698,0 -0.38786,-0.1782 -0.4686,-0.39585 z"
   id="path2339"
   inkscape:connector-curvature="0" /><text
   y="210.71144"
   x="130.66603"
   id="text26-2"
   style="font-variant:normal;font-weight:bold;font-size:68.00000763px;font-family:'Nunito Sans';-inkscape-font-specification:NunitoSans-Bold;writing-mode:lr-tb;fill:#ffffff;fill-opacity:1;fill-rule:nonzero;stroke:none;stroke-width:3.99999976"><tspan
     style="font-style:normal;font-variant:normal;font-weight:bold;font-stretch:normal;font-family:sans-serif;-inkscape-font-specification:'sans-serif Bold';stroke-width:3.99999976"
     id="tspan24-5"
     y="210.71144"
     x="130.66603">1</tspan></text>



</svg>