<?xml version="1.0" encoding="UTF-8" standalone="no"?>
<svg
   xmlns:dc="http://purl.org/dc/elements/1.1/"
   xmlns:cc="http://creativecommons.org/ns#"
   xmlns:rdf="http://www.w3.org/1999/02/22-rdf-syntax-ns#"
   xmlns:svg="http://www.w3.org/2000/svg"
   xmlns="http://www.w3.org/2000/svg"
   xmlns:sodipodi="http://sodipodi.sourceforge.net/DTD/sodipodi-0.dtd"
   xmlns:inkscape="http://www.inkscape.org/namespaces/inkscape"
   viewBox="0 0 300 300"
   height="300"
   width="300"
   xml:space="preserve"
   id="svg2"
   version="1.1"
   sodipodi:docname="Joining In Award - 5 Year.svg"
   inkscape:version="0.92.3 (2405546, 2018-03-11)"><sodipodi:namedview
   pagecolor="#ffffff"
   bordercolor="#666666"
   borderopacity="1"
   objecttolerance="10"
   gridtolerance="10"
   guidetolerance="10"
   inkscape:pageopacity="0"
   inkscape:pageshadow="2"
   inkscape:window-width="1280"
   inkscape:window-height="1001"
   id="namedview19"
   showgrid="false"
   inkscape:zoom="0.6207042"
   inkscape:cx="-381.1786"
   inkscape:cy="156.23154"
   inkscape:window-x="-8"
   inkscape:window-y="-8"
   inkscape:window-maximized="1"
   inkscape:current-layer="svg2" /><metadata
   id="metadata8"><rdf:RDF><cc:Work
       rdf:about=""><dc:format>image/svg+xml</dc:format><dc:type
         rdf:resource="http://purl.org/dc/dcmitype/StillImage" /><dc:title></dc:title></cc:Work></rdf:RDF></metadata><defs
   id="defs6" /><rect
   style="opacity:1;fill:#23a950;fill-opacity:1;fill-rule:evenodd;stroke:none;stroke-width:71.99926758;stroke-miterlimit:4;stroke-dasharray:none;stroke-opacity:1"
   id="rect850"
   width="300"
   height="300"
   x="0"
   y="0" /><rect
   style="opacity:1;fill:#000000;fill-opacity:1;fill-rule:evenodd;stroke:none;stroke-width:63.35935974;stroke-miterlimit:4;stroke-dasharray:none;stroke-opacity:1"
   id="rect850-3"
   width="264"
   height="264"
   x="18"
   y="18" /><path
   style="fill:#ffffff;stroke-width:4.00423717"
   d="m 149.88967,30.34086 -1.76367,1.92189 a 51.254238,51.254238 0 0 1 -6.12891,5.28513 21.542797,21.542797 0 0 0 -9.08789,16.65822 35.197245,35.197245 0 0 0 4.00195,14.5371 47.490255,47.490255 0 0 1 4.32422,12.89064 h 0.4043 4.8457 a 48.571398,48.571398 0 0 0 -4.76953,-14.89455 30.992796,30.992796 0 0 1 -3.76172,-12.49218 16.737712,16.737712 0 0 1 7.16602,-12.81444 c 0.7608,-0.60063 3.00667,-2.28015 4.96875,-4.00197 2.00212,1.84197 4.20306,3.52146 5.0039,4.00197 a 16.697669,16.697669 0 0 1 7.125,12.81444 30.992796,30.992796 0 0 1 -3.76171,12.49218 48.571398,48.571398 0 0 0 -4.76367,14.89455 h 4.88085 a 44.8875,44.8875 0 0 1 4.33008,-12.89064 35.797881,35.797881 0 0 0 4.00195,-14.5371 21.702966,21.702966 0 0 0 -9.1289,-16.65822 54.697881,54.697881 0 0 1 -6.12891,-5.28513 z m -33.27539,27.46875 a 14.295127,14.295127 0 0 0 -11.21485,5.40822 15.176059,15.176059 0 0 0 -3,12.73242 l 4.88086,-1.04298 a 10.370975,10.370975 0 0 1 2.08594,-8.64843 9.2898306,9.2898306 0 0 1 7.40625,-3.5625 13.33411,13.33411 0 0 1 10.5293,6.96678 30.352119,30.352119 0 0 1 4.44726,12.01173 h 4.88672 a 34.796823,34.796823 0 0 0 -5.32617,-14.69532 17.738771,17.738771 0 0 0 -14.69531,-9.16992 z m 66.75,0 a 17.818856,17.818856 0 0 0 -14.77735,9.21093 34.676694,34.676694 0 0 0 -5.24414,14.65431 h 5.00391 a 29.751483,29.751483 0 0 1 4.44727,-12.01173 h -0.082 a 13.213983,13.213983 0 0 1 10.65234,-6.96678 9.3699153,9.3699153 0 0 1 7.44727,3.5625 10.370975,10.370975 0 0 1 2.03906,8.64843 l 4.72852,1.04298 A 14.895763,14.895763 0 0 0 194.5733,63.21783 14.295127,14.295127 0 0 0 183.36431,57.80961 Z M 122.3799,85.88187 v 4.64064 h 55.41797 v -4.64064 z m 31.47071,8.92971 a 28.029661,28.029661 0 0 0 4.00195,10.40625 20.741949,20.741949 0 0 1 -8.00391,7.13085 20.58178,20.58178 0 0 1 -7.52929,-7.08984 26.988559,26.988559 0 0 0 4.00195,-10.41213 h -4.92188 a 22.543856,22.543856 0 0 1 -4.00781,8.8125 l -0.83789,1.16016 0.59766,1.28322 a 24.706144,24.706144 0 0 0 12.01758,11.20899 l 0.96093,0.43944 0.9961,-0.43944 a 24.586017,24.586017 0 0 0 12.01758,-11.20899 l 0.59765,-1.28322 -0.83789,-1.16016 -0.24024,-0.0411 a 23.144491,23.144491 0 0 1 -4.00781,-8.80662 z"
   id="path49"
   inkscape:connector-curvature="0" /><path
   style="fill:#ffffff;stroke-width:0.31667343"
   d="m 146.5991,268.16724 c -0.0807,-0.2178 -3.40955,-11.55966 -7.39732,-25.20432 -3.9878,-13.64466 -7.3809,-24.93885 -7.54026,-25.09821 -0.15936,-0.1593 -11.46826,-3.96675 -25.13092,-8.46093 -16.650108,-5.47686 -24.841188,-8.31255 -24.841188,-8.59983 0,-0.2355 9.681675,-7.03164 21.514818,-15.10197 11.83316,-8.07039 21.62805,-14.85174 21.76646,-15.06969 0.13842,-0.2178 0.25404,-7.66398 0.25701,-16.54665 0.007,-17.8812 0.3194,-36.57576 0.61327,-36.57576 0.24264,0 9.2605,6.9609 9.68292,7.47432 0.93814,1.14012 32.04098,24.82614 32.59824,24.82479 0.35886,-9.3e-4 2.57626,-0.64581 4.92756,-1.43316 16.25726,-5.44425 45.17505,-14.58588 45.42363,-14.35962 0.18276,0.1662 0.0777,0.73062 -0.27213,1.46169 -0.83544,1.74588 -17.28427,47.80821 -17.28427,48.40188 0,0.47133 24.32056,34.55871 28.71591,40.24785 1.10077,1.42479 2.00141,2.76444 2.00141,2.97699 0,0.2997 -1.75772,0.33627 -7.83767,0.1626 -11.85868,-0.33867 -35.43013,-1.11819 -40.63626,-1.34385 l -4.6147,-0.2001 -11.55463,15.7989 c -6.35504,8.68941 -12.15577,16.69389 -12.8905,17.78772 -2.46888,3.6756 -6.70805,9.25311 -7.03278,9.25311 -0.17697,0 -0.38785,-0.1782 -0.46859,-0.39585 z"
   id="path2339-4"
   inkscape:connector-curvature="0" /><path
   style="fill:#23a950;fill-opacity:1;stroke-width:0.31667343"
   d="m 135.73669,269.96685 c -0.0807,-0.2178 -3.40955,-11.55966 -7.39733,-25.20432 -3.98779,-13.64466 -7.38089,-24.93885 -7.54026,-25.09821 -0.15936,-0.1593 -11.46825,-3.96675 -25.130909,-8.46093 C 79.01808,205.72653 70.827,202.89084 70.827,202.60356 c 0,-0.2355 9.681675,-7.03164 21.514818,-15.10197 11.833152,-8.07039 21.628052,-14.85174 21.766452,-15.06969 0.13842,-0.2178 0.25404,-7.66398 0.25701,-16.54665 0.007,-17.8812 0.31941,-36.57576 0.61328,-36.57576 0.24264,0 9.2605,6.9609 9.68292,7.47432 0.93814,1.14012 32.04098,24.82614 32.59824,24.82479 0.35886,-9.3e-4 2.57625,-0.64581 4.92755,-1.43316 16.25727,-5.44425 45.17506,-14.58588 45.42363,-14.35962 0.18276,0.1662 0.0777,0.73062 -0.27213,1.46169 -0.83544,1.74588 -17.28426,47.80821 -17.28426,48.40188 0,0.47133 24.32056,34.55871 28.71591,40.24785 1.10077,1.42479 2.0014,2.76444 2.0014,2.97699 0,0.2997 -1.75771,0.33627 -7.83766,0.1626 -11.85869,-0.33867 -35.43013,-1.11819 -40.63626,-1.34385 l -4.6147,-0.2001 -11.55463,15.7989 c -6.35504,8.68941 -12.15577,16.69389 -12.89051,17.78772 -2.46887,3.6756 -6.70804,9.25311 -7.03277,9.25311 -0.17697,0 -0.38785,-0.1782 -0.4686,-0.39585 z"
   id="path2339"
   inkscape:connector-curvature="0" /><text
   y="210.71147"
   x="129.64807"
   id="text26-2"
   style="font-variant:normal;font-weight:bold;font-size:68px;font-family:'Nunito Sans';-inkscape-font-specification:NunitoSans-Bold;writing-mode:lr-tb;fill:#ffffff;fill-opacity:1;fill-rule:nonzero;stroke:none;stroke-width:4"><tspan
     style="font-style:normal;font-variant:normal;font-weight:bold;font-stretch:normal;font-family:sans-serif;-inkscape-font-specification:'sans-serif Bold';stroke-width:4"
     id="tspan24-5"
     y="210.71147"
     x="129.64807">5</tspan></text>




</svg>